<svg width="20" height="20" viewBox="0 0 20 20" fill="none" xmlns="http://www.w3.org/2000/svg">
<path fill-rule="evenodd" clip-rule="evenodd" d="M14.419 10.4419C14.6631 10.686 15.0588 10.686 15.3029 10.4419C15.547 10.1978 15.547 9.8021 15.3029 9.55802L10.4447 4.69982C10.4351 4.69011 10.4252 4.68071 10.415 4.67164C10.3046 4.57348 10.1592 4.51385 9.99986 4.51385C9.91849 4.51385 9.84074 4.52941 9.76944 4.5577C9.69241 4.5882 9.62021 4.6346 9.5579 4.69691L4.69679 9.55803C4.45271 9.8021 4.45271 10.1978 4.69679 10.4419C4.94087 10.686 5.3366 10.686 5.58067 10.4419L9.37486 6.64772L9.37486 14.8611C9.37486 15.2063 9.65469 15.4861 9.99986 15.4861C10.345 15.4861 10.6249 15.2063 10.6249 14.8611L10.6249 6.64776L14.419 10.4419Z" fill="#1D2433"/>
</svg>
