<svg width="20" height="21" viewBox="0 0 20 21" fill="none" xmlns="http://www.w3.org/2000/svg">
<path fill-rule="evenodd" clip-rule="evenodd" d="M4.16667 3H15.8333C16.75 3 17.5 3.75 17.5 4.66667V16.3333C17.5 17.25 16.75 18 15.8333 18H4.16667C3.25 18 2.5 17.25 2.5 16.3333V4.66667C2.5 3.75 3.25 3 4.16667 3ZM13.3333 11.3333H6.66667C6.20643 11.3333 5.83333 10.9602 5.83333 10.5C5.83333 10.0398 6.20643 9.66667 6.66667 9.66667H13.3333C13.7936 9.66667 14.1667 10.0398 14.1667 10.5C14.1667 10.9602 13.7936 11.3333 13.3333 11.3333Z" fill="#3D94F6"/>
</svg>
