<svg width="24" height="24" viewBox="0 0 24 24" fill="none" xmlns="http://www.w3.org/2000/svg">
<path fill-rule="evenodd" clip-rule="evenodd" d="M17.5893 7.58925C17.9148 7.26381 17.9148 6.73617 17.5893 6.41073C17.2639 6.0853 16.7363 6.0853 16.4108 6.41073L12.0001 10.8215L7.58934 6.41073C7.2639 6.0853 6.73626 6.0853 6.41083 6.41073C6.08539 6.73617 6.08539 7.26381 6.41083 7.58925L10.8216 12L6.41083 16.4107C6.08539 16.7362 6.08539 17.2638 6.41083 17.5892C6.73626 17.9147 7.2639 17.9147 7.58934 17.5892L12.0001 13.1785L16.4108 17.5892C16.7363 17.9147 17.2639 17.9147 17.5893 17.5892C17.9148 17.2638 17.9148 16.7362 17.5893 16.4107L13.1786 12L17.5893 7.58925Z" fill="#1D2433" fill-opacity="0.75"/>
</svg>
