<svg width="20" height="20" viewBox="0 0 20 20" fill="none" xmlns="http://www.w3.org/2000/svg">
<path fill-rule="evenodd" clip-rule="evenodd" d="M10.4076 4.47709C9.5524 4.09938 8.62267 3.92059 7.68839 3.95419C6.7541 3.98779 5.83962 4.2329 5.01377 4.67106C4.18793 5.10923 3.47224 5.72904 2.9206 6.48382C2.36895 7.23861 1.99573 8.1087 1.82901 9.0286C1.6623 9.94851 1.70645 10.8942 1.95813 11.7946C2.2098 12.695 2.66246 13.5265 3.28202 14.2266C3.51077 14.4851 3.90576 14.5093 4.16426 14.2805C4.42275 14.0518 4.44687 13.6568 4.21811 13.3983C3.72386 12.8397 3.36276 12.1764 3.16198 11.4581C2.9612 10.7398 2.92598 9.98536 3.05898 9.25151C3.19197 8.51766 3.48972 7.82354 3.92979 7.2214C4.36987 6.61927 4.94081 6.12482 5.59963 5.77527C6.25845 5.42572 6.98798 5.23018 7.73331 5.20338C8.47863 5.17658 9.22033 5.31921 9.90256 5.62053C10.5848 5.92185 11.1898 6.37402 11.672 6.94298C12.1541 7.51195 12.501 8.18289 12.6863 8.90529C12.7573 9.18169 13.0064 9.37495 13.2917 9.37495H14.1672C14.7724 9.37448 15.3621 9.56687 15.8505 9.92422C16.339 10.2816 16.7009 10.7853 16.8837 11.3622C17.0665 11.9392 17.0607 12.5594 16.8671 13.1328C16.6736 13.7062 16.3023 14.2031 15.8072 14.5512C15.5249 14.7498 15.4569 15.1396 15.6555 15.422C15.854 15.7043 16.2439 15.7723 16.5262 15.5737C17.2387 15.0727 17.7729 14.3578 18.0515 13.5326C18.33 12.7074 18.3384 11.8149 18.0753 10.9847C17.8123 10.1544 17.2915 9.42958 16.5886 8.91536C15.8858 8.40123 15.037 8.12438 14.1662 8.12495L13.7565 8.12495C13.7162 8.00743 13.6724 7.89125 13.6251 7.77657C13.3803 7.18216 13.0435 6.62793 12.6256 6.13481C12.0211 5.4216 11.2628 4.85481 10.4076 4.47709ZM10.0001 17.7083C9.65496 17.7083 9.37514 17.4285 9.37514 17.0833L9.37514 12.3423L7.66423 14.0532C7.42016 14.2973 7.02443 14.2973 6.78035 14.0532C6.53627 13.8091 6.53627 13.4134 6.78035 13.1693L9.55275 10.3969C9.66626 10.2806 9.82476 10.2083 10.0001 10.2083C10.1776 10.2083 10.3377 10.2823 10.4515 10.401L13.2198 13.1693C13.4639 13.4134 13.4639 13.8091 13.2198 14.0532C12.9757 14.2973 12.58 14.2973 12.3359 14.0532L10.6251 12.3424L10.6251 17.0833C10.6251 17.4285 10.3453 17.7083 10.0001 17.7083Z" fill="#1D2433" fill-opacity="0.75"/>
</svg>
