<svg width="20" height="20" viewBox="0 0 20 20" fill="none" xmlns="http://www.w3.org/2000/svg">
<path fill-rule="evenodd" clip-rule="evenodd" d="M2.4886 3.48695C2.59101 3.26622 2.81222 3.125 3.05555 3.125H16.9444C17.1878 3.125 17.409 3.26622 17.5114 3.48695C17.6138 3.70768 17.5788 3.96778 17.4217 4.15358L12.0139 10.5483V16.25C12.0139 16.4666 11.9017 16.6678 11.7175 16.7817C11.5332 16.8955 11.3031 16.9059 11.1094 16.809L8.3316 15.4201C8.11986 15.3143 7.98611 15.0978 7.98611 14.8611V10.5483L2.57832 4.15358C2.4212 3.96778 2.38619 3.70768 2.4886 3.48695ZM4.40262 4.375L9.08834 9.91587C9.18375 10.0287 9.23611 10.1717 9.23611 10.3194V14.4748L10.7639 15.2387V10.3194C10.7639 10.1717 10.8162 10.0287 10.9117 9.91587L15.5974 4.375H4.40262Z" fill="#1D2433" fill-opacity="0.75"/>
</svg>
