<svg width="20" height="20" viewBox="0 0 20 20" fill="none" xmlns="http://www.w3.org/2000/svg">
<g id="Icons / M / More Horizontal">
<path id="Union" fill-rule="evenodd" clip-rule="evenodd" d="M8.33334 5.55556C8.33334 4.7885 8.95517 4.16667 9.72223 4.16667C10.4893 4.16667 11.1111 4.7885 11.1111 5.55556C11.1111 6.32262 10.4893 6.94445 9.72223 6.94445C8.95517 6.94445 8.33334 6.32262 8.33334 5.55556ZM8.61105 10C8.61105 9.23298 9.23288 8.61115 9.99994 8.61115C10.767 8.61115 11.3888 9.23298 11.3888 10C11.3888 10.7671 10.767 11.3889 9.99994 11.3889C9.23288 11.3889 8.61105 10.7671 8.61105 10ZM9.99994 13.4722C9.23288 13.4722 8.61105 14.094 8.61105 14.8611C8.61105 15.6281 9.23288 16.25 9.99994 16.25C10.767 16.25 11.3888 15.6281 11.3888 14.8611C11.3888 14.094 10.767 13.4722 9.99994 13.4722Z" fill="#1D2433" fill-opacity="0.8"/>
</g>
</svg>
