<svg width="20" height="20" viewBox="0 0 20 20" fill="none" xmlns="http://www.w3.org/2000/svg">
<path fill-rule="evenodd" clip-rule="evenodd" d="M5.41665 6.52778C5.41665 5.33883 6.38048 4.375 7.56942 4.375C8.75837 4.375 9.7222 5.33883 9.7222 6.52778C9.7222 7.71672 8.75837 8.68056 7.56942 8.68056C6.38048 8.68056 5.41665 7.71672 5.41665 6.52778ZM7.56942 3.125C5.69012 3.125 4.16665 4.64848 4.16665 6.52778C4.16665 8.40708 5.69012 9.93055 7.56942 9.93055C9.44873 9.93055 10.9722 8.40708 10.9722 6.52778C10.9722 4.64848 9.44873 3.125 7.56942 3.125ZM5.1388 11.4583C4.23633 11.4583 3.37082 11.8168 2.73267 12.455C2.09453 13.0931 1.73602 13.9586 1.73602 14.8611V16.25C1.73602 16.5952 2.01584 16.875 2.36102 16.875C2.7062 16.875 2.98602 16.5952 2.98602 16.25V14.8611C2.98602 14.2902 3.21283 13.7426 3.61656 13.3389C4.02028 12.9351 4.56785 12.7083 5.1388 12.7083H9.99991C10.5709 12.7083 11.1184 12.9351 11.5222 13.3389C11.9259 13.7426 12.1527 14.2902 12.1527 14.8611V16.25C12.1527 16.5952 12.4325 16.875 12.7777 16.875C13.1229 16.875 13.4027 16.5952 13.4027 16.25V14.8611C13.4027 13.9586 13.0442 13.0931 12.406 12.455C11.7679 11.8168 10.9024 11.4583 9.99991 11.4583H5.1388ZM15.5556 6.59709C15.9008 6.59709 16.1806 6.87691 16.1806 7.22209V8.68042H17.6389C17.9841 8.68042 18.2639 8.96024 18.2639 9.30542C18.2639 9.6506 17.9841 9.93042 17.6389 9.93042H16.1806V11.3888C16.1806 11.7339 15.9008 12.0138 15.5556 12.0138C15.2104 12.0138 14.9306 11.7339 14.9306 11.3888V9.93042H13.4723C13.1271 9.93042 12.8473 9.6506 12.8473 9.30542C12.8473 8.96024 13.1271 8.68042 13.4723 8.68042H14.9306V7.22209C14.9306 6.87691 15.2104 6.59709 15.5556 6.59709Z" fill="#1D2433"/>
</svg>
