<svg width="20" height="20" viewBox="0 0 20 20" fill="none" xmlns="http://www.w3.org/2000/svg">
<path fill-rule="evenodd" clip-rule="evenodd" d="M10.625 5.13898C10.625 4.7938 10.3452 4.51398 9.99997 4.51398C9.6548 4.51398 9.37497 4.7938 9.37497 5.13898V9.37502H5.13885C4.79368 9.37502 4.51385 9.65484 4.51385 10C4.51385 10.3452 4.79368 10.625 5.13885 10.625H9.37497V14.8612C9.37497 15.2064 9.6548 15.4862 9.99997 15.4862C10.3452 15.4862 10.625 15.2064 10.625 14.8612V10.625H14.8611C15.2063 10.625 15.4861 10.3452 15.4861 10C15.4861 9.65484 15.2063 9.37502 14.8611 9.37502H10.625V5.13898Z" fill="white" fill-opacity="0.75"/>
</svg>
